# xmcd CD database file
#
# Track frame offsets:
#	150
#	23285
#	49685
#	74669
#
# Disc length: 1380 seconds
#
# Revision: 0
# Processed by: cddbd v1.5.1PL0 Copyright (c) Steve Scherf et al.
# Submitted via: CDex 1.51
#
DISCID=2b056204
DTITLE=JIVE - アヤコアコースチック
DYEAR=1900
DGENRE=Jazz
TTITLE0=月明かり
TTITLE1=散らかった部屋
TTITLE2=恋の唄
TTITLE3=時の音
EXTD=
EXTT0=
EXTT1=
EXTT2=
EXTT3=
PLAYORDER=
